<?xml version="1.0" encoding="utf-8"?>
<!-- Generator: Adobe Illustrator 17.0.0, SVG Export Plug-In . SVG Version: 6.00 Build 0)  -->
<!DOCTYPE svg PUBLIC "-//W3C//DTD SVG 1.1//EN" "http://www.w3.org/Graphics/SVG/1.1/DTD/svg11.dtd">
<svg version="1.1" id="Layer_1" xmlns="http://www.w3.org/2000/svg" xmlns:xlink="http://www.w3.org/1999/xlink" x="0px" y="0px"
	 width="927.643px" height="258.119px" viewBox="0 0 927.643 258.119" enable-background="new 0 0 927.643 258.119"
	 xml:space="preserve">
<g>
	<path fill="#037EC5" d="M170.724,26.539c0.52-0.162,1.039-0.324,1.559-0.486c-0.226,0.639-0.453,1.278-0.679,1.917
		c-2.78,3.118-5.559,6.235-8.339,9.353c-5.072,3.669-10.289,7.093-16.1,9.512c-4.208,1.27-8.415,2.539-12.623,3.809
		c-11.225,1.558-22.486,2.905-33.449,5.939c-4.558,0.91-9.032,2.061-13.068,4.49c-5.817,2.189-10.45,5.96-14.336,10.729
		c-3.362,2.888-4.953,7.129-7.862,10.757c-0.815-4.315-1.151-8.339-3.538-11.73c-4.494-9.515-11.806-16.073-21.324-20.313
		c-0.353-0.499-0.794-0.84-1.444-0.808c0,0-0.043-0.024-0.043-0.024c-7.601-4.212-15.103-8.577-21.84-14.124
		c-0.657-0.987-1.256-2.028-2.373-2.594C7.681,21.745,8.128,14.271,16.895,5.368c0.336-0.341,0.555-0.798,0.829-1.201
		C19.779,3.011,20.941,0.533,23.498,0c0.499,2.018-1.003,3.863,0.203,5.64c0.726,6.563,5.145,9.773,10.781,11.878
		c2.902,1.786,6.182,2.393,9.464,2.868c6.567,0.95,13.06,2.25,19.504,3.816l0.033,0.009c0.694,0.224,1.389,0.447,2.083,0.671
		c2.571,1.292,5.141,2.584,7.712,3.876c2.682,2.379,4.81,5.094,5.056,9.421c2.551-2.668,5.114-4.334,7.605-6.096
		c5.39-2.337,11.003-3.772,16.872-4.174c0.24,0.079,0.452,0.034,0.638-0.137c5.34,0.473,10.68,0.946,16.02,1.419
		c1.87,0.6,3.769,1.049,5.748,1.05c4.491,1.204,9.057,1.895,13.708,2c4.506,1.062,9.076,1.031,13.659,0.808
		C159.296,32.725,165.599,31.276,170.724,26.539z"/>
	<path fill="#7CC7F0" d="M90.241,67.462c4.488-1.848,8.976-3.696,13.466-5.546c-2.323,3.353-6.324,4.875-8.807,8.084
		c-0.881,1.139-2.2,1.941-2.573,3.462c-8.026,11.168-8.165,23.166-3.756,35.645c0.165,4.873,2.904,8.831,4.664,13.137
		c0.47,3.132,2.697,5.372,4.082,8.04c-0.205,1.389,0.78,2.306,1.375,3.36c2.869,5.086,6.257,9.824,9.788,14.465
		c2.437,4.456,5.692,8.29,9.13,11.984c3.319,5.201,7.582,9.582,11.997,13.833c2.785,3.041,5.28,6.378,8.829,8.638
		c3.34,3.768,6.931,7.244,11.368,9.731c0.114,0.196,0.258,0.367,0.432,0.512c4.05,3.745,8.625,6.746,13.407,9.453
		c0.925,0.613,1.892,1.171,2.767,1.849c3.031,2.349,7.103,3.055,9.661,6.141c-1.058,0.537-1.931-0.122-2.819-0.484
		c-20.089-8.17-40.219-16.254-59.494-26.264c-14.075-7.31-27.767-15.251-39.678-25.852c-9.928-8.837-18.227-18.796-20.43-32.532
		c-0.273-1.7-0.062-3.535-1.367-4.951c-0.178-0.263-0.357-0.527-0.535-0.79c2.053-2.23,0.804-5.14,1.57-7.635l0.019,0.048
		c1.95-1.207,1.838-3.446,2.523-5.245C60.271,94.96,67.053,85.057,76.44,76.944c0.45-0.389,0.748-0.955,1.117-1.438
		C81.785,72.825,86.013,70.143,90.241,67.462z"/>
	<path fill="#037EC5" d="M61.787,229.932c-9.914-5.191-19.493-10.923-28.447-17.661c-3.907-3.461-7.815-6.922-11.722-10.383
		c-0.156-0.206-0.313-0.411-0.469-0.617c-0.362-0.738-0.746-1.453-1.674-1.598c-2.602-3.089-5.205-6.179-7.807-9.268
		C7.723,184.035,3.78,177.667,0,171.563c0.504,0.404,1.367,1.095,2.229,1.785c0.464,0.587,0.929,1.175,1.393,1.762
		c3.953,4.442,7.93,8.86,12.809,12.342c7.891,7.743,17.586,12.435,27.719,16.386c2.831,1.576,5.783,2.833,8.998,3.392
		c4.796,2.322,9.96,3.257,16.225,4.795c-4.496-6.213-6.193-12.49-9.346-18.07c-3.218-9.352-6.239-18.761-8.125-28.493
		c-0.659-5.442-1.319-10.884-1.978-16.326c0.261-1.527,0.259-3.042-0.204-4.537c0.155-4.717,0.31-9.435,0.465-14.152
		c0.979-3.37,0.625-7.013,2.096-10.283c1.304,1.416,1.094,3.251,1.367,4.951c2.204,13.736,10.502,23.696,20.43,32.532
		c11.911,10.601,25.603,18.542,39.678,25.852c19.275,10.01,39.405,18.094,59.494,26.264c0.888,0.361,1.762,1.021,2.819,0.484
		c0,0,0.008,0.005,0.008,0.005c0.34,0.902,1,1.133,1.883,0.9c0,0,0.18,0.039,0.18,0.038c0.27,0.081,0.54,0.163,0.81,0.245
		c5.173,1.413,9.132,5.403,14.336,6.75c3.75,1.832,7.499,3.664,11.249,5.496c1.564,1.342,3.421,2.132,5.328,2.827
		c4.748,2.927,9.497,5.854,14.245,8.78c4.595,4.058,9.827,7.556,12.038,13.708c-1.092,0.64-0.639,1.538-0.399,2.4
		c-1.942,2.648-4.692,3.973-7.782,4.723c-6.301,1.529-12.721,2.008-19.177,2c-6.103-0.008-12.205-0.164-18.308-0.255
		c-6.779-0.748-13.553-1.567-20.386-1.637c-0.659-0.488-1.372-0.523-2.121-0.255c-6.307-0.749-12.614-1.498-18.922-2.247
		c-12.588-2.404-25.196-4.706-37.759-7.236C94.112,243.03,77.717,237.16,61.787,229.932z"/>
	<g>
		<path fill="#037EC5" d="M322.932,189.142h-15.52l-12.055-30.484l-10.253-30.623l-10.115,30.9l-11.778,30.207h-15.519
			L212.08,92.146h20.508l22.863,69.976l23.556-69.976h11.917l24.249,69.976l22.17-69.976h20.508L322.932,189.142z"/>
		<path fill="#037EC5" d="M410.51,120.829h16.212v68.313h-15.935l-0.831-9.977c-3.88,8.037-14.549,11.917-22.17,12.055
			c-20.23,0.139-35.196-12.333-35.196-36.304c0-23.556,15.658-35.888,35.611-35.75c9.146,0,17.875,4.296,21.755,11.085
			L410.51,120.829z M369.494,154.916c0,13.025,9.007,20.785,20.231,20.785c26.604,0,26.604-41.431,0-41.431
			C378.501,134.27,369.494,141.891,369.494,154.916z"/>
		<path fill="#037EC5" d="M457.762,92.285v96.857h-16.767V92.285H457.762z"/>
		<path fill="#037EC5" d="M486.999,161.013c1.108,8.453,8.453,14.549,20.369,14.549c6.235,0,14.411-2.355,18.291-6.374l10.808,10.67
			c-7.205,7.482-18.983,11.085-29.376,11.085c-23.556,0-37.551-14.549-37.551-36.442c0-20.785,14.134-35.75,36.304-35.75
			c22.863,0,37.136,14.134,34.503,42.262H486.999z M524.135,147.018c-1.108-8.868-8.037-13.303-17.736-13.303
			c-9.146,0-16.628,4.435-19.122,13.303H524.135z"/>
		<path fill="#037EC5" d="M597.991,138.981c-4.85-4.573-10.392-6.097-16.904-6.097c-8.037,0-12.471,2.494-12.471,6.79
			c0,4.434,4.018,6.928,12.748,7.482c12.886,0.832,29.236,3.741,29.236,21.894c0,12.055-9.838,22.447-29.375,22.447
			c-10.809,0-21.616-1.801-31.593-12.193l8.313-12.055c4.85,5.404,15.935,9.422,23.556,9.561c6.374,0.139,12.333-3.187,12.333-8.175
			c0-4.711-3.88-6.651-13.58-7.205c-12.886-0.97-28.267-5.681-28.267-21.201c0-15.796,16.351-21.339,28.821-21.339
			c10.67,0,18.706,2.079,26.604,9.007L597.991,138.981z"/>
		<path fill="#037EC5" d="M708.014,139.813c0.416,24.526-14.549,49.329-48.497,49.329c-11.917,0-26.189,0-38.105,0V92.146
			c11.916,0,26.188,0,38.105,0C692.772,92.146,707.599,115.841,708.014,139.813z M639.563,171.544h19.954
			c22.031,0,30.761-16.074,30.346-31.87c-0.416-15.104-9.284-30.207-30.346-30.207h-19.954V171.544z"/>
		<path fill="#037EC5" d="M774.388,120.829H790.6v68.313h-15.935l-0.832-9.977c-3.88,8.037-14.549,11.917-22.17,12.055
			c-20.23,0.139-35.195-12.333-35.195-36.304c0-23.556,15.657-35.888,35.61-35.75c9.146,0,17.875,4.296,21.755,11.085
			L774.388,120.829z M733.372,154.916c0,13.025,9.007,20.785,20.23,20.785c26.604,0,26.604-41.431,0-41.431
			C742.379,134.27,733.372,141.891,733.372,154.916z"/>
		<path fill="#037EC5" d="M825.798,101.569v19.399h18.845v14.549h-18.983v29.514c0,6.513,3.603,9.7,8.868,9.7
			c2.633,0,5.681-0.832,8.175-2.079l4.712,14.411c-4.85,1.94-8.868,2.771-13.995,2.91c-14.826,0.554-24.526-7.898-24.526-24.942
			v-29.514h-12.748v-14.549h12.748V103.37L825.798,101.569z"/>
		<path fill="#037EC5" d="M911.431,120.829h16.212v68.313h-15.935l-0.832-9.977c-3.88,8.037-14.549,11.917-22.17,12.055
			c-20.23,0.139-35.195-12.333-35.195-36.304c0-23.556,15.657-35.888,35.61-35.75c9.146,0,17.875,4.296,21.755,11.085
			L911.431,120.829z M870.415,154.916c0,13.025,9.007,20.785,20.23,20.785c26.604,0,26.604-41.431,0-41.431
			C879.422,134.27,870.415,141.891,870.415,154.916z"/>
	</g>
</g>
</svg>
